<svg width="24" height="24" viewBox="0 0 24 24" fill="none" xmlns="http://www.w3.org/2000/svg">
<mask id="mask0_10387_1041" style="mask-type:alpha" maskUnits="userSpaceOnUse" x="0" y="0" width="24" height="24">
<rect width="24" height="24" fill="#D9D9D9"/>
</mask>
<g mask="url(#mask0_10387_1041)">
<path fill-rule="evenodd" clip-rule="evenodd" d="M7.01074 18.7072C8.32056 19.5496 10.0454 20.18 11.7111 20.18C16.3883 20.18 20.1799 16.3341 20.1799 11.59C20.1799 6.84587 16.3883 2.99999 11.7111 2.99999C7.03392 2.99999 3.2423 6.84587 3.2423 11.59C3.2423 12.1872 3.30832 12.9257 3.38042 13.7323C3.51119 15.1953 3.66198 16.8822 3.4751 18.3555C3.39266 19.0054 3.24451 19.6138 2.99993 20.143C3.46509 20.1194 4.17299 20.0031 4.95783 19.7368C5.62055 19.512 6.33812 19.1803 7.01074 18.7072ZM5.25438 17.7576C5.51329 17.6286 5.77251 17.4777 6.02237 17.302L6.96787 16.6369L7.94009 17.2622C9.03728 17.9679 10.4441 18.462 11.7111 18.462C15.4166 18.462 18.4619 15.4084 18.4619 11.59C18.4619 7.7716 15.4166 4.71799 11.7111 4.71799C8.00568 4.71799 4.96031 7.7716 4.96031 11.59C4.96031 12.0405 5.00625 12.619 5.07104 13.3489C5.07776 13.4245 5.08464 13.5015 5.09163 13.5796C5.14953 14.2269 5.21486 14.9573 5.25126 15.6948C5.28294 16.3364 5.29733 17.0404 5.25438 17.7576Z" fill="#F4F4F5"/>
</g>
</svg>
