<svg width="16" height="16" viewBox="0 0 16 16" fill="none" xmlns="http://www.w3.org/2000/svg">
<mask id="mask0_10412_928" style="mask-type:alpha" maskUnits="userSpaceOnUse" x="0" y="0" width="16" height="16">
<rect width="16" height="16" transform="matrix(-1 0 0 1 16 0)" fill="#D9D9D9"/>
</mask>
<g mask="url(#mask0_10412_928)">
<path fill-rule="evenodd" clip-rule="evenodd" d="M10.7795 12.4715C9.90625 13.0331 8.75637 13.4533 7.64588 13.4533C4.52774 13.4533 2 10.8894 2 7.72667C2 4.56392 4.52774 2 7.64588 2C10.764 2 13.2918 4.56392 13.2918 7.72667C13.2918 8.12479 13.2477 8.61715 13.1997 9.15487C13.1125 10.1302 13.012 11.2548 13.1366 12.237C13.1915 12.6703 13.2903 13.0759 13.4533 13.4287C13.1432 13.413 12.6713 13.3354 12.1481 13.1579C11.7063 13.008 11.2279 12.7869 10.7795 12.4715ZM11.9504 11.8384C11.7778 11.7524 11.6049 11.6518 11.4384 11.5346L10.808 11.0913L10.1599 11.5082C9.42843 11.9786 8.49055 12.308 7.64588 12.308C5.17558 12.308 3.14533 10.2723 3.14533 7.72667C3.14533 5.18108 5.17558 3.14534 7.64588 3.14534C10.1162 3.14534 12.1464 5.18108 12.1464 7.72667C12.1464 8.02698 12.1158 8.41265 12.0726 8.89927C12.0681 8.94968 12.0635 9.00099 12.0589 9.0531C12.0203 9.48462 11.9767 9.97152 11.9524 10.4632C11.9313 10.8909 11.9217 11.3603 11.9504 11.8384Z" fill="#F4F4F5"/>
</g>
</svg>
