<svg width="16" height="16" viewBox="0 0 16 16" fill="none" xmlns="http://www.w3.org/2000/svg">
<mask id="mask0_10412_922" style="mask-type:alpha" maskUnits="userSpaceOnUse" x="0" y="0" width="16" height="16">
<rect width="16" height="16" fill="#D9D9D9"/>
</mask>
<g mask="url(#mask0_10412_922)">
<path d="M7.99994 13.5513L7.26406 12.8897C6.15894 11.8872 5.24505 11.0256 4.52239 10.3051C3.79975 9.58461 3.2271 8.94337 2.80446 8.38141C2.3818 7.81944 2.0865 7.30683 1.91856 6.84359C1.7506 6.38034 1.66663 5.91026 1.66663 5.43334C1.66663 4.48719 1.98564 3.69511 2.62368 3.05707C3.26171 2.41904 4.0538 2.10002 4.99994 2.10002C5.582 2.10002 6.132 2.23614 6.64994 2.50837C7.16789 2.78059 7.61789 3.17098 7.99994 3.67952C8.382 3.17098 8.832 2.78059 9.34994 2.50837C9.86789 2.23614 10.4179 2.10002 10.9999 2.10002C11.9461 2.10002 12.7382 2.41904 13.3762 3.05707C14.0142 3.69511 14.3333 4.48719 14.3333 5.43334C14.3333 5.91026 14.2493 6.38034 14.0813 6.84359C13.9134 7.30683 13.6181 7.81944 13.1954 8.38141C12.7728 8.94337 12.2012 9.58461 11.4807 10.3051C10.7602 11.0256 9.84523 11.8872 8.73583 12.8897L7.99994 13.5513ZM7.99994 12.2C9.06661 11.2402 9.94439 10.4175 10.6333 9.73206C11.3222 9.04659 11.8666 8.45108 12.2666 7.94552C12.6666 7.43997 12.9444 6.99103 13.0999 6.59872C13.2555 6.20641 13.3333 5.81795 13.3333 5.43334C13.3333 4.76667 13.1111 4.21112 12.6666 3.76667C12.2222 3.32223 11.6666 3.10001 10.9999 3.10001C10.4734 3.10001 9.9869 3.24937 9.54033 3.54809C9.09375 3.8468 8.74012 4.2624 8.47943 4.79489H7.52046C7.2555 4.25813 6.9008 3.84146 6.45636 3.54487C6.01192 3.24829 5.52644 3.10001 4.99994 3.10001C4.33755 3.10001 3.78307 3.32223 3.33648 3.76667C2.8899 4.21112 2.66661 4.76667 2.66661 5.43334C2.66661 5.81795 2.74439 6.20641 2.89994 6.59872C3.0555 6.99103 3.33328 7.43997 3.73328 7.94552C4.13328 8.45108 4.67772 9.04552 5.36661 9.72886C6.0555 10.4122 6.93328 11.2359 7.99994 12.2Z" fill="#F4F4F5"/>
</g>
</svg>
