<svg width="16" height="16" viewBox="0 0 16 16" fill="none" xmlns="http://www.w3.org/2000/svg">
<mask id="mask0_10412_931" style="mask-type:alpha" maskUnits="userSpaceOnUse" x="0" y="0" width="16" height="16">
<rect width="16" height="16" transform="matrix(1 0 0 -1 0 16)" fill="#D9D9D9"/>
</mask>
<g mask="url(#mask0_10412_931)">
<path d="M4.0949 4.23078L5.66028 6.95514C5.62181 6.93378 5.57694 6.91882 5.52565 6.91026C5.47437 6.90172 5.42309 6.89744 5.3718 6.89744C4.69402 6.89744 4.1186 7.13612 3.64553 7.61346C3.17245 8.09082 2.93591 8.66411 2.93591 9.33333C2.93591 10.0111 3.17245 10.5865 3.64553 11.0596C4.1186 11.5327 4.69402 11.7692 5.3718 11.7692C6.04102 11.7692 6.6143 11.5327 7.09165 11.0596C7.569 10.5865 7.80768 10.0111 7.80768 9.33333C7.80768 9.09914 7.77926 8.88119 7.72241 8.67948C7.66558 8.47778 7.58246 8.28547 7.47306 8.10256L5.24358 4.23078H4.0949ZM10.018 4.23078L11.5833 6.95514C11.5449 6.93378 11.5 6.91882 11.4487 6.91026C11.3974 6.90172 11.3462 6.89744 11.2949 6.89744C10.6171 6.89744 10.0417 7.13612 9.5686 7.61346C9.09552 8.09082 8.85898 8.66411 8.85898 9.33333C8.85898 10.0154 9.09552 10.5919 9.5686 11.0628C10.0417 11.5337 10.6171 11.7692 11.2949 11.7692C11.9641 11.7692 12.5374 11.5327 13.0147 11.0596C13.4921 10.5865 13.7307 10.0111 13.7307 9.33333C13.7307 9.09914 13.7023 8.88119 13.6455 8.67948C13.5887 8.47778 13.5055 8.28547 13.3961 8.10256L11.1666 4.23078H10.018Z" fill="#F4F4F5"/>
</g>
</svg>
