<svg width="16" height="4" viewBox="0 0 16 4" fill="none" xmlns="http://www.w3.org/2000/svg">
<path d="M2.23066 3.49998C1.81818 3.49998 1.46506 3.35311 1.17131 3.05936C0.877579 2.76561 0.730713 2.41249 0.730713 2.00001C0.730713 1.58752 0.877579 1.23441 1.17131 0.940656C1.46506 0.646906 1.81818 0.500031 2.23066 0.500031C2.64316 0.500031 2.99628 0.646906 3.29001 0.940656C3.58376 1.23441 3.73064 1.58752 3.73064 2.00001C3.73064 2.41249 3.58376 2.76561 3.29001 3.05936C2.99628 3.35311 2.64316 3.49998 2.23066 3.49998ZM7.99989 3.49998C7.5874 3.49998 7.23429 3.35311 6.94054 3.05936C6.64679 2.76561 6.49991 2.41249 6.49991 2.00001C6.49991 1.58752 6.64679 1.23441 6.94054 0.940656C7.23429 0.646906 7.5874 0.500031 7.99989 0.500031C8.41237 0.500031 8.76549 0.646906 9.05924 0.940656C9.35299 1.23441 9.49986 1.58752 9.49986 2.00001C9.49986 2.41249 9.35299 2.76561 9.05924 3.05936C8.76549 3.35311 8.41237 3.49998 7.99989 3.49998ZM13.7691 3.49998C13.3566 3.49998 13.0035 3.35311 12.7098 3.05936C12.416 2.76561 12.2691 2.41249 12.2691 2.00001C12.2691 1.58752 12.416 1.23441 12.7098 0.940656C13.0035 0.646906 13.3566 0.500031 13.7691 0.500031C14.1816 0.500031 14.5347 0.646906 14.8285 0.940656C15.1222 1.23441 15.2691 1.58752 15.2691 2.00001C15.2691 2.41249 15.1222 2.76561 14.8285 3.05936C14.5347 3.35311 14.1816 3.49998 13.7691 3.49998Z" fill="#F4F4F5"/>
</svg>
