<svg width="10" height="10" viewBox="0 0 10 10" fill="none" xmlns="http://www.w3.org/2000/svg">
<path d="M7.4422 9.19227C6.96096 9.19227 6.54899 9.02092 6.20628 8.67821C5.86358 8.33551 5.69223 7.92354 5.69223 7.44229C5.69223 6.96105 5.86358 6.54907 6.20628 6.20636C6.54899 5.86366 6.96096 5.69231 7.4422 5.69231C7.92345 5.69231 8.33543 5.86366 8.67813 6.20636C9.02084 6.54907 9.19219 6.96105 9.19219 7.44229C9.19219 7.92354 9.02084 8.33551 8.67813 8.67821C8.33543 9.02092 7.92345 9.19227 7.4422 9.19227ZM2.5576 7.69227C2.07635 7.69227 1.66438 7.52092 1.32168 7.17821C0.978971 6.83551 0.807617 6.42354 0.807617 5.94229C0.807617 5.46104 0.978971 5.04907 1.32168 4.70636C1.66438 4.36366 2.07635 4.19231 2.5576 4.19231C3.03885 4.19231 3.45082 4.36366 3.79353 4.70636C4.13623 5.04907 4.30758 5.46104 4.30758 5.94229C4.30758 6.42354 4.13623 6.83551 3.79353 7.17821C3.45082 7.52092 3.03885 7.69227 2.5576 7.69227ZM4.4999 3.84612C4.01866 3.84612 3.60669 3.67477 3.26398 3.33207C2.92127 2.98937 2.74992 2.57739 2.74992 2.09615C2.74992 1.6149 2.92127 1.20292 3.26398 0.860223C3.60669 0.517515 4.01866 0.346161 4.4999 0.346161C4.98115 0.346161 5.39312 0.517515 5.73583 0.860223C6.07854 1.20292 6.24989 1.6149 6.24989 2.09615C6.24989 2.57739 6.07854 2.98937 5.73583 3.33207C5.39312 3.67477 4.98115 3.84612 4.4999 3.84612Z" fill="#F4F4F5"/>
</svg>
