<svg width="40" height="32" viewBox="0 0 40 32" fill="none" xmlns="http://www.w3.org/2000/svg">
<g style="mix-blend-mode:difference">
<g style="mix-blend-mode:hard-light">
<path d="M0.45829 16C0.45829 7.16345 7.62722 0 16.4705 0C25.3139 0 32.4828 7.16345 32.4828 16C32.4828 24.8366 25.3139 32 16.4705 32C13.3211 32 10.0599 30.8258 7.58339 29.2567C4.80553 31.1815 1.62214 31.8501 2.67029e-05 31.9311C2.08858 27.479 0.45829 20.02 0.45829 16Z" fill="url(#paint0_linear_10387_1026)"/>
</g>
<g style="mix-blend-mode:hard-light">
<path d="M19.8944 22.0453C19.8944 16.7434 24.1958 12.4453 29.5018 12.4453C34.8078 12.4453 39.1091 16.7434 39.1091 22.0453C39.1091 27.3473 34.8078 31.6453 29.5018 31.6453C27.6121 31.6453 25.653 30.96 24.1671 30.0185C22.348 31.058 20.594 31.4802 19.6195 31.7076C20.8726 29.0363 19.8944 24.4574 19.8944 22.0453Z" fill="url(#paint1_radial_10387_1026)"/>
</g>
</g>
<defs>
<linearGradient id="paint0_linear_10387_1026" x1="-8.38046" y1="39.8075" x2="24.9499" y2="2.71722" gradientUnits="userSpaceOnUse">
<stop offset="0.0001" stop-color="#E4C000"/>
<stop offset="0.47" stop-color="#CD0000"/>
<stop offset="1" stop-color="#AA3B70"/>
</linearGradient>
<radialGradient id="paint1_radial_10387_1026" cx="0" cy="0" r="1" gradientUnits="userSpaceOnUse" gradientTransform="translate(38.9139 12.4453) rotate(135.84) scale(26.8953 332.696)">
<stop stop-color="#2068DE"/>
<stop offset="1" stop-color="#1A74E9"/>
</radialGradient>
</defs>
</svg>
